<?xml version="1.0" standalone="no"?><!DOCTYPE svg PUBLIC "-//W3C//DTD SVG 1.1//EN" "http://www.w3.org/Graphics/SVG/1.1/DTD/svg11.dtd"><svg t="1544577732462" class="icon" style="" viewBox="0 0 1024 1024" version="1.1" xmlns="http://www.w3.org/2000/svg" p-id="1838" xmlns:xlink="http://www.w3.org/1999/xlink" width="200" height="200"><defs><style type="text/css"></style></defs><path d="M513.03 511.71m-447.38 0a447.38 447.38 0 1 0 894.76 0 447.38 447.38 0 1 0-894.76 0Z" fill="#00D8CB" p-id="1839"></path><path d="M417.22 709.65a31.94 31.94 0 0 1-32-31.95V360.51a32 32 0 0 1 48.42-27.39l258.45 155.43a32 32 0 0 1 0.47 54.48L434.12 704.79a31.77 31.77 0 0 1-16.9 4.86z m23.91-306.76v231.54l188.66-118.09z m221.77 92.73zM404.82 381.05z" fill="#FFFFFF" p-id="1840"></path></svg>